<svg width="20" height="20" viewBox="0 0 20 20" fill="none" xmlns="http://www.w3.org/2000/svg"><path d="M5.62691 9.15527e-05C1.50701 9.15527e-05 0 1.50699 0 5.62704V14.3731C0 18.4932 1.50701 20.0001 5.62691 20.0001H14.3703C18.4903 20.0001 20 18.4932 20 14.3731V5.62704C20 1.50699 18.493 9.15527e-05 14.3731 9.15527e-05H5.62691Z" fill="#C8102E"/><path d="M3.96088 10.0027H4.49078V12.6175H3.96088V11.5556H2.76294V12.6175H2.2323V10.0027H2.76294V11.0575H3.96088V10.0027ZM6.94951 11.4994C6.94951 11.9245 6.73842 12.1516 6.35504 12.1516C5.96969 12.1516 5.75736 11.9174 5.75736 11.4812V10.0041H5.22685V11.4994C5.22685 12.2349 5.63549 12.6566 6.34826 12.6566C7.06757 12.6566 7.48015 12.2269 7.48015 11.4776V10.0025H6.95025L6.94951 11.4994ZM13.0809 11.8007L12.4873 10.0025H12.0543L11.4607 11.8007L10.883 10.0038H10.3183L11.2302 12.6174H11.6685L12.2631 10.9007L12.8574 12.6174H13.301L14.2101 10.0038H13.6601L13.0809 11.8007ZM15.1611 11.4927H16.126V11.0165H15.1611V10.4813H16.5619V10.0046H14.6377V12.6162H16.6124V12.1399H15.1611V11.4927ZM17.2448 12.6141H17.7685V10.0027H17.245L17.2448 12.6141ZM8.52837 12.0719L8.29041 12.6163H7.7488L8.90065 10.0029H9.36894L10.5162 12.6163H9.95996L9.72582 12.0719H8.52837ZM8.72554 11.6004H9.52766L9.12531 10.6647L8.72554 11.6004Z" fill="white"/><path d="M10.0006 6.67347C9.11802 6.67246 8.27184 6.32139 7.64775 5.69727C7.02365 5.07315 6.67261 4.22695 6.67163 3.34433H7.14189C7.14189 4.10259 7.4431 4.82979 7.97927 5.36595C8.51543 5.90212 9.24263 6.20334 10.0009 6.20334C10.7591 6.20334 11.4863 5.90212 12.0225 5.36595C12.5587 4.82979 12.8599 4.10259 12.8599 3.34433H13.3301C13.3291 4.22704 12.978 5.07331 12.3538 5.69744C11.7296 6.32157 10.8833 6.67259 10.0006 6.67347Z" fill="white"/></svg>