<svg width="20" height="20" viewBox="0 0 20 20" fill="none" xmlns="http://www.w3.org/2000/svg"><path d="M15.958 9.15527e-05H4.0395C1.80727 9.15527e-05 0 1.80737 0 4.03959V15.9606C0 18.1903 1.80727 19.9976 4.0395 19.9976H15.9605C18.1902 19.9976 20 18.1903 20 15.9581V4.03959C19.9975 1.80737 18.1902 9.15527e-05 15.958 9.15527e-05Z" fill="url(#paint0_linear_8217_21461)"/><path d="M9.91377 4.59459L10.3187 3.89467C10.5687 3.45723 11.1261 3.30975 11.5636 3.55972C12.001 3.80968 12.1485 4.36711 11.8985 4.80456L7.99651 11.5587H10.8187C11.7335 11.5587 12.246 12.6336 11.8485 13.3785H3.57456C3.06962 13.3785 2.66467 12.9735 2.66467 12.4686C2.66467 11.9637 3.06962 11.5587 3.57456 11.5587H5.89427L8.8639 6.41186L7.93651 4.80206C7.68654 4.36462 7.83403 3.81218 8.27147 3.55722C8.70892 3.30725 9.26135 3.45473 9.51632 3.89217L9.91377 4.59459ZM6.40421 14.3159L5.52931 15.8332C5.27935 16.2706 4.72192 16.4181 4.28447 16.1681C3.84702 15.9182 3.69954 15.3607 3.94951 14.9233L4.59943 13.7984C5.33434 13.571 5.93176 13.7459 6.40421 14.3159ZM13.9383 11.5637H16.3055C16.8104 11.5637 17.2154 11.9687 17.2154 12.4736C17.2154 12.9785 16.8104 13.3835 16.3055 13.3835H14.9906L15.878 14.9233C16.128 15.3607 15.9805 15.9132 15.5431 16.1681C15.1056 16.4181 14.5532 16.2706 14.2982 15.8332C12.8034 13.241 11.681 11.3012 10.9361 10.0089C10.1737 8.69407 10.7187 7.37424 11.2561 6.9268C11.8535 7.95167 12.7459 9.49897 13.9383 11.5637Z" fill="white"/><defs><linearGradient id="paint0_linear_8217_21461" x1="10" y1="9.15527e-05" x2="10" y2="19.9976" gradientUnits="userSpaceOnUse"><stop stop-color="#18BFFB"/><stop offset="1" stop-color="#2072F3"/></linearGradient></defs></svg>