<svg width="18" height="20" viewBox="0 0 18 20" fill="none" xmlns="http://www.w3.org/2000/svg"><path d="M0.417726 0.3656C0.156143 0.601028 0 0.99371 0 1.51496V1.39712V18.5976V18.4843C0 18.9657 0.133932 19.3374 0.360743 19.5769L0.418638 19.6321V19.6324C0.60222 19.7976 0.837628 19.8854 1.10742 19.8851C1.37104 19.8851 1.66764 19.8013 1.98066 19.6242L13.2949 13.2115L17.1813 11.0085C17.6749 10.7288 17.952 10.3679 17.9983 10.0004V9.99887C17.952 9.63048 17.6749 9.26991 17.1814 8.99017L13.2946 6.78745L1.9807 0.374686C1.66701 0.197338 1.3702 0.11319 1.10588 0.11319C0.836399 0.11319 0.601308 0.200658 0.417796 0.3656H0.417726Z" fill="#00C1FF"/><path d="M0.418673 19.6322L0.360743 19.5769C0.133932 19.3376 0 18.9658 0 18.4844V18.5977V1.40148V1.51505C0 0.993805 0.156143 0.601124 0.417726 0.365696L10.0753 9.99928L0.418673 19.6322Z" fill="url(#paint0_linear_8217_21467)"/><path d="M13.2948 13.2113L10.0752 9.99901L13.2945 6.78728L17.1812 8.98996C17.6748 9.26973 17.9519 9.63027 17.9982 9.9987V10.0002C17.9519 10.3677 17.6748 10.7286 17.1812 11.0083L13.2949 13.2112" fill="url(#paint1_linear_8217_21467)"/><path d="M1.10546 19.8861C0.835702 19.8863 0.600295 19.7985 0.416748 19.6333V19.6331L10.0734 10.0001L13.293 13.2124L1.9787 19.6252C1.66568 19.8022 1.36908 19.8861 1.10546 19.8861Z" fill="url(#paint2_linear_8217_21467)"/><path d="M10.0744 10.0008L0.416748 0.367237C0.60033 0.202294 0.835421 0.114825 1.10486 0.114825C1.36918 0.114825 1.66603 0.198939 1.97969 0.376323L13.2937 6.78909L10.0743 10.0008" fill="url(#paint3_linear_8217_21467)"/><path d="M1.10972 20.0008C0.839958 20.0008 0.604235 19.913 0.420654 19.7478L0.420338 19.7481C0.419582 19.7473 0.418773 19.7466 0.417917 19.746L0.367705 19.6971C0.366126 19.6955 0.364653 19.6938 0.362793 19.692L0.420689 19.6342C0.604271 19.7994 0.839643 19.8872 1.10947 19.8869C1.37305 19.8869 1.66966 19.8031 1.98268 19.626L13.297 13.2133L13.3695 13.2856L13.2961 13.3272L1.98264 19.7396C1.69738 19.9009 1.42604 19.985 1.18095 19.999C1.15722 20.0002 1.13347 20.0008 1.10972 20.0008" fill="url(#paint4_linear_8217_21467)"/><path d="M0.360744 19.6908C0.133932 19.4514 0 19.08 0 18.5983V18.485C0 18.9664 0.133932 19.3381 0.360744 19.5775L0.41864 19.6328L0.360744 19.6908Z" fill="url(#paint5_linear_8217_21467)"/><path d="M13.3688 13.2845L13.2963 13.2121L17.1826 11.0092C17.6762 10.7295 17.9533 10.3686 17.9996 10.0011C17.9996 10.136 17.9695 10.2708 17.9095 10.4021C17.7886 10.6666 17.5463 10.9166 17.1827 11.1228L13.3688 13.2845" fill="url(#paint6_linear_8217_21467)"/><path d="M18 10.0008C17.9536 9.63239 17.6765 9.27186 17.183 8.99209L13.2963 6.78941L13.3688 6.71707H13.3691L17.183 8.8788C17.7271 9.1874 17.9996 9.59406 18 10.0008Z" fill="url(#paint7_linear_8217_21467)"/><path d="M0 1.51456V1.39574C0 1.3529 0.00115792 1.311 0.00336849 1.27032V1.26847C0.00336849 1.26791 0.00336849 1.26732 0.00357902 1.26669V1.26211C0.0270532 0.847485 0.156143 0.524065 0.360744 0.308103L0.417728 0.365169C0.156144 0.600631 0 0.993312 0 1.51456Z" fill="url(#paint8_linear_8217_21467)"/><path d="M13.2966 6.78793L1.98268 0.375091C1.66902 0.197742 1.37221 0.113629 1.10789 0.113629C0.838415 0.113629 0.603323 0.201097 0.419776 0.366039L0.362793 0.308939C0.380588 0.290145 0.399081 0.27202 0.418232 0.254599C0.418829 0.25397 0.419776 0.25334 0.420373 0.252746C0.602481 0.0890617 0.835081 0.00159311 1.10214 2.0504e-05H1.10789C1.37221 2.0504e-05 1.66902 0.0841694 1.98268 0.261588L13.3695 6.71535L13.3691 6.7156L13.2966 6.78793Z" fill="url(#paint9_linear_8217_21467)"/><defs><linearGradient id="paint0_linear_8217_21467" x1="6.17179" y1="1.21973" x2="-2.11689" y2="9.55568" gradientUnits="userSpaceOnUse"><stop stop-color="#00A0FF"/><stop offset="0.00657" stop-color="#00A1FF"/><stop offset="0.2601" stop-color="#00BEFF"/><stop offset="0.5122" stop-color="#00D2FF"/><stop offset="0.7604" stop-color="#00DFFF"/><stop offset="1" stop-color="#00E3FF"/></linearGradient><linearGradient id="paint1_linear_8217_21467" x1="18.5996" y1="9.9435" x2="-0.261474" y2="9.9435" gradientUnits="userSpaceOnUse"><stop stop-color="#FFE000"/><stop offset="0.4087" stop-color="#FFBD00"/><stop offset="0.7754" stop-color="#FFA500"/><stop offset="1" stop-color="#FF9C00"/></linearGradient><linearGradient id="paint2_linear_8217_21467" x1="11.5837" y1="13.0542" x2="-2.46252" y2="27.0774" gradientUnits="userSpaceOnUse"><stop stop-color="#FF3A44"/><stop offset="1" stop-color="#C31162"/></linearGradient><linearGradient id="paint3_linear_8217_21467" x1="-2.07229" y1="-1.06099" x2="4.18775" y2="5.19839" gradientUnits="userSpaceOnUse"><stop stop-color="#32A071"/><stop offset="0.0685" stop-color="#2DA771"/><stop offset="0.4762" stop-color="#15CF74"/><stop offset="0.8009" stop-color="#06E775"/><stop offset="1" stop-color="#00F076"/></linearGradient><linearGradient id="paint4_linear_8217_21467" x1="11.5806" y1="15.2833" x2="0.332034" y2="26.5961" gradientUnits="userSpaceOnUse"><stop stop-color="#CC2E36"/><stop offset="1" stop-color="#9C0E4E"/></linearGradient><linearGradient id="paint5_linear_8217_21467" x1="1.28654" y1="1.22016" x2="-6.01572" y2="8.56417" gradientUnits="userSpaceOnUse"><stop stop-color="#008DE0"/><stop offset="0.00657" stop-color="#008DE0"/><stop offset="0.2601" stop-color="#00A7E0"/><stop offset="0.5122" stop-color="#00B8E0"/><stop offset="0.7604" stop-color="#00C4E0"/><stop offset="1" stop-color="#00C7E0"/></linearGradient><linearGradient id="paint6_linear_8217_21467" x1="18.601" y1="10.0004" x2="-0.260048" y2="10.0004" gradientUnits="userSpaceOnUse"><stop stop-color="#E0C500"/><stop offset="0.4087" stop-color="#E0A600"/><stop offset="0.7754" stop-color="#E09100"/><stop offset="1" stop-color="#E08900"/></linearGradient><linearGradient id="paint7_linear_8217_21467" x1="18.6013" y1="10.0016" x2="-0.259681" y2="10.0016" gradientUnits="userSpaceOnUse"><stop stop-color="#FFE840"/><stop offset="0.4087" stop-color="#FFCE40"/><stop offset="0.7754" stop-color="#FFBC40"/><stop offset="1" stop-color="#FFB540"/></linearGradient><linearGradient id="paint8_linear_8217_21467" x1="1.27858" y1="1.23244" x2="-5.75599" y2="8.00073" gradientUnits="userSpaceOnUse"><stop stop-color="#40B8FF"/><stop offset="0.00657" stop-color="#40B9FF"/><stop offset="0.2601" stop-color="#40CEFF"/><stop offset="0.5122" stop-color="#40DDFF"/><stop offset="0.7604" stop-color="#40E7FF"/><stop offset="1" stop-color="#40EAFF"/></linearGradient><linearGradient id="paint9_linear_8217_21467" x1="-2.08337" y1="0.975135" x2="2.93962" y2="6.02685" gradientUnits="userSpaceOnUse"><stop stop-color="#65B895"/><stop offset="0.0685" stop-color="#62BD95"/><stop offset="0.4762" stop-color="#50DB97"/><stop offset="0.8009" stop-color="#44ED98"/><stop offset="1" stop-color="#40F498"/></linearGradient></defs></svg>