<svg width="20" height="20" viewBox="0 0 248 247" fill="none" xmlns="http://www.w3.org/2000/svg">
<path fill-rule="evenodd" clip-rule="evenodd" d="M119.04 247C62.9241 247 34.8661 247 17.433 229.637C-1.5179e-06 212.275 -2.73942e-06 184.329 -5.18245e-06 128.439L-5.61432e-06 118.559C-8.05735e-06 62.6694 -9.27886e-06 34.7244 17.433 17.3617C34.866 2.89935e-05 62.924 2.77671e-05 119.04 2.53142e-05L119.04 2.53142e-05L128.96 2.48806e-05L128.96 2.48806e-05C185.076 2.24276e-05 213.134 2.12012e-05 230.567 17.3617C248 34.7244 248 62.6694 248 118.559L248 128.439C248 184.329 248 212.275 230.567 229.637C213.134 247 185.076 247 128.96 247L119.04 247Z" fill="#2B71F6"/>
<path d="M143.31 151.691C136.661 150.03 132 144.083 132 137.262L132 56.9067C132 49.1596 139.32 43.4778 146.872 45.3641L194.69 57.3094C201.339 58.9702 206 64.917 206 71.7377L206 152.093C206 159.84 198.68 165.522 191.128 163.636L143.31 151.691Z" fill="white"/>
<path d="M53.3095 188.691C46.6614 187.03 42 181.083 42 174.262L42 93.9067C42 86.1596 49.3205 80.4778 56.8716 82.3641L104.69 94.3094C111.339 95.9702 116 101.917 116 108.738L116 189.093C116 196.84 108.68 202.522 101.128 200.636L53.3095 188.691Z" fill="white"/>
<path d="M99.1567 169.691C92.5984 168.03 88 162.083 88 155.262L88 74.9067C88 67.1596 95.2216 61.4778 102.671 63.3641L149.843 75.3094C156.402 76.9702 161 82.917 161 89.7377L161 170.093C161 177.84 153.778 183.522 146.329 181.636L99.1567 169.691Z" fill="white"/>
<path d="M130 178C127.906 177.465 126.416 175.612 126.343 173.452L124.262 111.649C123.66 103.527 117.631 97.0674 111.331 95.1651C110.977 95.0584 110.6 95.2022 110.39 95.5065C110.177 95.8159 110.259 96.2439 110.556 96.4738C112.112 97.6781 116.394 101.608 116.394 108.387V174.525L130 178Z" fill="#2B71F6"/>
<path d="M175 160C174.948 159.987 174.923 159.981 174.9 159.975C172.774 159.424 171.257 157.552 171.158 155.359C171.157 155.335 171.156 155.308 171.154 155.255L168.975 93.6489C168.342 85.509 161.985 79.0389 155.354 77.1526C155.006 77.0537 154.637 77.1916 154.425 77.4847C154.197 77.8014 154.283 78.2511 154.597 78.4834C156.242 79.6988 160.714 83.6263 160.714 90.3873V156.446L175 160Z" fill="#2B71F6"/>
</svg>
